<svg width="24" height="24" viewBox="0 0 24 24" fill="none" stroke="#686868" xmlns="http://www.w3.org/2000/svg">
<g clip-path="url(#clip0_4401_10098)">
<g clip-path="url(#clip1_4401_10098)">
<path d="M12 3C10.9391 3 9.92172 3.42143 9.17157 4.17157C8.42143 4.92172 8 5.93913 8 7C8 8.06087 8.42143 9.07828 9.17157 9.82843C9.92172 10.5786 10.9391 11 12 11C13.0609 11 14.0783 10.5786 14.8284 9.82843C15.5786 9.07828 16 8.06087 16 7C16 5.93913 15.5786 4.92172 14.8284 4.17157C14.0783 3.42143 13.0609 3 12 3ZM12 14C8.859 14 3 15.545 3 18.5V21H12.295C11.9386 19.8148 11.9044 18.556 12.1958 17.3531C12.4872 16.1503 13.0937 15.0467 13.953 14.156C13.3066 14.0575 12.6539 14.0053 12 14ZM18.064 14C18.0017 14.0001 17.9416 14.023 17.8952 14.0645C17.8487 14.106 17.8191 14.1631 17.812 14.225L17.695 15.236C17.211 15.404 16.775 15.659 16.395 15.988L15.457 15.582C15.4001 15.5575 15.3362 15.5548 15.2775 15.5746C15.2188 15.5943 15.1695 15.6351 15.139 15.689L14.201 17.311C14.1702 17.3649 14.1601 17.4283 14.1729 17.4891C14.1856 17.5499 14.2201 17.604 14.27 17.641L15.076 18.238C15.0268 18.4891 15.0014 18.7442 15 19C15 19.26 15.028 19.513 15.076 19.76L14.271 20.36C14.2211 20.3971 14.1866 20.4512 14.1741 20.512C14.1615 20.5729 14.1718 20.6362 14.203 20.69L15.139 22.31C15.17 22.3639 15.2198 22.4045 15.2788 22.4241C15.3378 22.4436 15.402 22.4407 15.459 22.416L16.395 22.012C16.7765 22.3431 17.2178 22.5983 17.695 22.764L17.812 23.775C17.8187 23.8371 17.8482 23.8944 17.8947 23.936C17.9413 23.9775 18.0016 24.0004 18.064 24H19.936C19.9983 23.9999 20.0584 23.977 20.1048 23.9355C20.1513 23.894 20.1809 23.8369 20.188 23.775L20.305 22.764C20.789 22.596 21.225 22.341 21.605 22.012L22.543 22.418C22.5999 22.4423 22.6638 22.4448 22.7224 22.4251C22.781 22.4054 22.8304 22.3648 22.861 22.311L23.799 20.689C23.8298 20.6351 23.8399 20.5717 23.8271 20.5109C23.8144 20.4501 23.7799 20.396 23.73 20.359L22.924 19.759C22.972 19.513 23 19.26 23 19C23 18.74 22.972 18.487 22.924 18.24L23.729 17.64C23.7789 17.6029 23.8134 17.5488 23.8259 17.488C23.8385 17.4271 23.8282 17.3638 23.797 17.31L22.861 15.69C22.83 15.6361 22.7803 15.5955 22.7212 15.5759C22.6622 15.5564 22.598 15.5593 22.541 15.584L21.605 15.988C21.2234 15.657 20.7822 15.4018 20.305 15.236L20.188 14.225C20.1813 14.1629 20.1518 14.1056 20.1053 14.064C20.0587 14.0225 19.9984 13.9996 19.936 14H18.064ZM19 17.25C19.4641 17.25 19.9092 17.4344 20.2374 17.7626C20.5656 18.0908 20.75 18.5359 20.75 19C20.75 19.4641 20.5656 19.9092 20.2374 20.2374C19.9092 20.5656 19.4641 20.75 19 20.75C18.5359 20.75 18.0908 20.5656 17.7626 20.2374C17.4344 19.9092 17.25 19.4641 17.25 19C17.25 18.5359 17.4344 18.0908 17.7626 17.7626C18.0908 17.4344 18.5359 17.25 19 17.25Z" stroke="#686868"/>
</g>
</g>
<defs>
<clipPath id="clip0_4401_10098">
<rect width="24" height="24" fill="white"/>
</clipPath>
<clipPath id="clip1_4401_10098">
<rect width="24" height="24" fill="white"/>
</clipPath>
</defs>
</svg>
