<svg width="25" height="25" viewBox="0 0 25 25" fill="none" xmlns="http://www.w3.org/2000/svg">
<path d="M22.4312 19.321C22.4312 19.8515 22.2204 20.3602 21.8454 20.7353C21.4703 21.1103 20.9616 21.321 20.4312 21.321H4.43115C3.90072 21.321 3.39201 21.1103 3.01694 20.7353C2.64187 20.3602 2.43115 19.8515 2.43115 19.321V5.32104C2.43115 4.79061 2.64187 4.2819 3.01694 3.90683C3.39201 3.53176 3.90072 3.32104 4.43115 3.32104H9.43115L11.4312 6.32104H20.4312C20.9616 6.32104 21.4703 6.53176 21.8454 6.90683C22.2204 7.2819 22.4312 7.79061 22.4312 8.32104V19.321Z" stroke="#0232BA" stroke-width="2" stroke-linecap="round" stroke-linejoin="round"/>
<path d="M12.4312 11.321V17.321" stroke="#0232BA" stroke-width="2" stroke-linecap="round" stroke-linejoin="round"/>
<path d="M9.43115 14.321H15.4312" stroke="#0232BA" stroke-width="2" stroke-linecap="round" stroke-linejoin="round"/>
</svg>
