<svg width="109" height="102" viewBox="0 0 109 102" fill="none" xmlns="http://www.w3.org/2000/svg">
<mask id="mask0_1434_33376" style="mask-type:luminance" maskUnits="userSpaceOnUse" x="38" y="30" width="24" height="24">
<path fill-rule="evenodd" clip-rule="evenodd" d="M38 30H62V53.9882H38V30Z" fill="white"/>
</mask>
<g mask="url(#mask0_1434_33376)">
<path fill-rule="evenodd" clip-rule="evenodd" d="M44.7938 31.8035C41.7625 31.8035 39.8037 33.8801 39.8037 37.093V46.8952C39.8037 50.1092 41.7625 52.1846 44.7938 52.1846H55.1948C58.2333 52.1846 60.1969 50.1092 60.1969 46.8952V37.093C60.1969 33.8801 58.2333 31.8035 55.1948 31.8035H44.7938ZM55.1947 53.9882H44.7937C40.7295 53.9882 38 51.1373 38 46.8951V37.0929C38 32.8507 40.7295 29.9998 44.7937 29.9998H55.1947C59.265 29.9998 62.0005 32.8507 62.0005 37.0929V46.8951C62.0005 51.1373 59.265 53.9882 55.1947 53.9882Z" fill="#FFD8A3"/>
</g>
<path fill-rule="evenodd" clip-rule="evenodd" d="M41.9458 48.2534C41.7221 48.2534 41.4997 48.1716 41.3253 48.0057C40.9634 47.6642 40.949 47.0918 41.2917 46.7323L43.129 44.7928C44.1017 43.7599 45.743 43.7094 46.7807 44.6834L47.9327 45.8521C48.2537 46.1768 48.7756 46.1828 49.0978 45.8654C49.2193 45.7223 51.8382 42.5418 51.8382 42.5418C52.336 41.9382 53.0382 41.5655 53.8186 41.4885C54.6001 41.42 55.3589 41.6472 55.9637 42.1438C56.0154 42.1859 56.0623 42.2268 58.7028 44.9383C59.0503 45.2942 59.0443 45.8654 58.6872 46.2129C58.3313 46.5628 57.7589 46.5519 57.4114 46.196C57.4114 46.196 54.9476 43.6673 54.7721 43.4966C54.5857 43.3439 54.2863 43.2549 53.9917 43.2837C53.6923 43.3138 53.423 43.4569 53.2318 43.689C50.4373 47.0786 50.4037 47.1111 50.358 47.1556C49.3263 48.168 47.6609 48.1512 46.6473 47.1171C46.6473 47.1171 45.529 45.982 45.5098 45.9591C45.232 45.7018 44.7366 45.7187 44.4396 46.0325L42.5999 47.972C42.4219 48.1596 42.1839 48.2534 41.9458 48.2534Z" fill="#FFD8A3"/>
<path fill-rule="evenodd" clip-rule="evenodd" d="M45.8847 37.3691C45.2198 37.3691 44.6787 37.9102 44.6787 38.5764C44.6787 39.2425 45.2198 39.7848 45.8859 39.7848C46.5521 39.7848 47.0944 39.2425 47.0944 38.5764C47.0944 37.9114 46.5521 37.3703 45.8847 37.3691ZM45.8859 41.5884C44.2253 41.5884 42.875 40.2369 42.875 38.5763C42.875 36.9158 44.2253 35.5654 45.8859 35.5654C47.5476 35.5666 48.898 36.9182 48.898 38.5763C48.898 40.2369 47.5464 41.5884 45.8859 41.5884Z" fill="#FFD8A3"/>
<rect x="48.499" y="48.4995" width="24" height="24" rx="12" fill="#FFD8A3"/>
<path fill-rule="evenodd" clip-rule="evenodd" d="M60.504 66.4993C59.9411 66.4993 59.4844 66.0425 59.4844 65.4797V55.5191C59.4844 54.9563 59.9411 54.4995 60.504 54.4995C61.0668 54.4995 61.5235 54.9563 61.5235 55.5191V65.4797C61.5235 66.0425 61.0668 66.4993 60.504 66.4993Z" fill="white"/>
<path fill-rule="evenodd" clip-rule="evenodd" d="M65.4874 61.5187H55.5186C54.9544 61.5187 54.499 61.0619 54.499 60.4991C54.499 59.9363 54.9544 59.4795 55.5186 59.4795H65.4874C66.0502 59.4795 66.507 59.9363 66.507 60.4991C66.507 61.0619 66.0502 61.5187 65.4874 61.5187Z" fill="white"/>
<rect x="1" y="1" width="107" height="100" rx="12" stroke="#FFD8A3" stroke-dasharray="5 5"/>
</svg>
