<svg width="25" height="24" viewBox="0 0 25 24" fill="none" xmlns="http://www.w3.org/2000/svg">
<path d="M19.0193 11H5.01932C3.91475 11 3.01932 11.8954 3.01932 13V20C3.01932 21.1046 3.91475 22 5.01932 22H19.0193C20.1239 22 21.0193 21.1046 21.0193 20V13C21.0193 11.8954 20.1239 11 19.0193 11Z" stroke="#212121" stroke-width="2" stroke-linecap="round" stroke-linejoin="round"/>
<path d="M7.01932 11V7C7.01932 5.67392 7.5461 4.40215 8.48378 3.46447C9.42147 2.52678 10.6932 2 12.0193 2C13.3454 2 14.6172 2.52678 15.5549 3.46447C16.4925 4.40215 17.0193 5.67392 17.0193 7V11" stroke="#212121" stroke-width="2" stroke-linecap="round" stroke-linejoin="round"/>
</svg>
