<!DOCTYPE svg PUBLIC "-//W3C//DTD SVG 1.1//EN" "http://www.w3.org/Graphics/SVG/1.1/DTD/svg11.dtd">
<!-- Uploaded to: SVG Repo, www.svgrepo.com, Transformed by: SVG Repo Mixer Tools -->
<svg width="256px" height="256px" viewBox="0 0 20.00 20.00" xmlns="http://www.w3.org/2000/svg" fill="#ffffff" stroke="#ffffff" stroke-width="0.0002">
<g id="SVGRepo_bgCarrier" stroke-width="0"/>
<g id="SVGRepo_tracerCarrier" stroke-linecap="round" stroke-linejoin="round" stroke="#CCCCCC" stroke-width="0.04"/>
<g id="SVGRepo_iconCarrier">
<path d="M3 3h1V1H2.5A1.5 1.5 0 001 2.5V4h2V3zM17 3v1h2V2.5A1.5 1.5 0 0017.5 1H16v2h1zM16 17h1v-1h2v1.5a1.5 1.5 0 01-1.5 1.5H16v-2zM3 17v-1H1v1.5A1.5 1.5 0 002.5 19H4v-2H3zM2 14h3V6H2v8zM14 14h-3V6h3v8zM7 14h2V6H7v8zM16 14h2V6h-2v8z" fill="#5C5F62"/>
</g>
</svg>